#N canvas 188 99 1266 613 12;
#X obj 23 388 tgl 19 0 empty empty empty 0 -10 0 12 #fcfcfc #000000 #000000 0 1;
#X obj 122 389 tgl 19 0 empty empty empty 0 -10 0 12 #fcfcfc #000000 #000000 0 1;
#X obj 221 389 tgl 19 0 empty empty empty 0 -10 0 12 #fcfcfc #000000 #000000 0 1;
#X obj 465 388 tgl 19 0 empty empty empty 0 -10 0 12 #fcfcfc #000000 #000000 0 1;
#X obj 574 387 tgl 19 0 empty empty empty 0 -10 0 12 #fcfcfc #000000 #000000 0 1;
#X obj 673 388 tgl 19 0 empty empty empty 0 -10 0 12 #fcfcfc #000000 #000000 0 1;
#X obj 23 425 s H1;
#X obj 122 426 s H2;
#X obj 221 426 s H3;
#X obj 465 425 s H4;
#X obj 574 425 s H5;
#X obj 673 426 s H6;
#X obj 350 387 tgl 19 0 empty empty empty 0 -10 0 12 #fcfcfc #000000 #000000 0 1;
#X obj 350 424 s MP;
#X obj 72 389 r s1;
#X obj 169 390 r s2;
#X obj 287 390 r s3;
#X msg 287 414 \$1 50;
#X msg 169 423 \$1 50;
#X msg 72 420 \$1 50;
#X obj 16 9 netreceive -u 8001;
#X obj 16 38 route h1 h2 h3 mp h4 h5 h6, f 111;
#X floatatom 53 82 5 0 0 0 - - - 0;
#X obj 53 105 vsl 19 162 0 1 0 0 empty empty empty 0 -9 0 12 #fcfcfc #000000 #000000 0 1;
#X floatatom 152 82 5 0 0 0 - - - 0;
#X obj 152 105 vsl 19 162 0 1 0 0 empty empty empty 0 -9 0 12 #fcfcfc #000000 #000000 0 1;
#X floatatom 265 83 5 0 0 0 - - - 0;
#X obj 265 106 vsl 19 162 0 1 0 0 empty empty empty 0 -9 0 12 #fcfcfc #000000 #000000 0 1;
#X floatatom 389 79 5 0 0 0 - - - 0;
#X obj 389 102 vsl 19 162 0 1 0 0 empty empty empty 0 -9 0 12 #fcfcfc #000000 #000000 0 1;
#X floatatom 489 81 5 0 0 0 - - - 0;
#X obj 489 104 vsl 19 162 0 1 0 0 empty empty empty 0 -9 0 12 #fcfcfc #000000 #000000 0 1;
#X floatatom 604 79 5 0 0 0 - - - 0;
#X obj 604 102 vsl 19 162 0 1 0 0 empty empty empty 0 -9 0 12 #fcfcfc #000000 #000000 0 1;
#X floatatom 693 80 5 0 0 0 - - - 0;
#X obj 693 103 vsl 19 162 0 1 0 0 empty empty empty 0 -9 0 12 #fcfcfc #000000 #000000 0 1;
#X obj 23 344 > 0, f 13;
#X obj 122 344 > 0, f 13;
#X obj 221 344 > 0, f 13;
#X obj 465 344 > 0, f 13;
#X obj 574 344 > 0, f 13;
#X obj 673 344 > 0, f 13;
#X obj 350 345 > 0, f 13;
#X obj 72 444 line;
#X obj 169 447 line;
#X obj 287 438 line;
#X obj 809 27 route mpraw;
#X floatatom 809 51 5 0 0 0 - - - 0;
#X obj 269 475 *;
#X obj 158 475 *;
#X obj 59 473 *;
#X obj 382 498 s mp;
#X obj 498 496 s h4;
#X obj 608 493 s h5;
#X obj 712 426 s h6;
#X obj 271 504 s h3;
#X obj 60 501 s h1;
#X obj 159 503 s h2;
#X msg 516 406 \$1 50;
#X obj 516 430 line;
#X obj 498 467 *;
#X msg 627 404 \$1 50;
#X obj 627 428 line;
#X obj 609 465 *;
#X obj 516 381 r s4;
#X obj 627 380 r s5;
#X floatatom 914 34 5 0 0 0 - - - 0;
#X obj 914 10 route acc-y acc-z;
#X floatatom 972 34 5 0 0 0 - - - 0;
#X obj 914 305 vsl 30 162 -1 1 0 0 empty empty empty 0 -9 0 12 #fcfcfc #000000 #000000 0 1;
#X obj 972 305 vsl 30 162 -1 1 0 0 empty empty empty 0 -9 0 12 #fcfcfc #000000 #000000 0 1;
#X connect 0 0 6 0;
#X connect 1 0 7 0;
#X connect 2 0 8 0;
#X connect 3 0 9 0;
#X connect 4 0 10 0;
#X connect 5 0 11 0;
#X connect 12 0 13 0;
#X connect 14 0 19 0;
#X connect 15 0 18 0;
#X connect 16 0 17 0;
#X connect 17 0 45 0;
#X connect 18 0 44 0;
#X connect 19 0 43 0;
#X connect 20 0 21 0;
#X connect 20 0 46 0;
#X connect 20 0 67 0;
#X connect 21 0 22 0;
#X connect 21 0 36 0;
#X connect 21 1 24 0;
#X connect 21 1 37 0;
#X connect 21 2 26 0;
#X connect 21 2 38 0;
#X connect 21 3 28 0;
#X connect 21 3 42 0;
#X connect 21 4 30 0;
#X connect 21 4 39 0;
#X connect 21 5 32 0;
#X connect 21 5 40 0;
#X connect 21 6 34 0;
#X connect 21 6 41 0;
#X connect 22 0 23 0;
#X connect 23 0 50 0;
#X connect 24 0 25 0;
#X connect 25 0 49 0;
#X connect 26 0 27 0;
#X connect 27 0 48 0;
#X connect 28 0 29 0;
#X connect 29 0 51 0;
#X connect 30 0 31 0;
#X connect 31 0 60 0;
#X connect 32 0 33 0;
#X connect 33 0 63 0;
#X connect 34 0 35 0;
#X connect 36 0 0 0;
#X connect 37 0 1 0;
#X connect 38 0 2 0;
#X connect 39 0 3 0;
#X connect 40 0 4 0;
#X connect 41 0 5 0;
#X connect 42 0 12 0;
#X connect 43 0 50 1;
#X connect 44 0 49 1;
#X connect 45 0 48 1;
#X connect 46 0 47 0;
#X connect 48 0 55 0;
#X connect 49 0 57 0;
#X connect 50 0 56 0;
#X connect 58 0 59 0;
#X connect 59 0 60 1;
#X connect 60 0 52 0;
#X connect 61 0 62 0;
#X connect 62 0 63 1;
#X connect 63 0 53 0;
#X connect 64 0 58 0;
#X connect 65 0 61 0;
#X connect 66 0 69 0;
#X connect 67 0 66 0;
#X connect 67 1 68 0;
#X connect 68 0 70 0;
