#N canvas 9 12 1877 941 12;
#X obj 1512 545 s~ audio;
#X obj 1513 625 catch~ output;
#X obj 445 209 tgl 19 0 empty empty empty 0 -10 0 12 #fcfcfc #000000 #000000 0 1;
#X obj 1550 212 s~ intensity;
#X obj 1052 134 s s1;
#X obj 1088 134 s s2;
#X obj 1124 134 s s3;
#X obj 1186 133 s s4;
#X obj 1222 133 s s5;
#X obj 1078 46 r H2;
#X obj 1114 46 r H3;
#X obj 1174 46 r H4;
#X obj 1210 46 r H5;
#X obj 1246 46 r H6;
#X obj 23 246 s H1;
#X obj 128 246 s H2;
#X obj 234 245 s H3;
#X obj 445 246 s H4;
#X obj 550 246 s H5;
#X obj 656 246 s H6;
#X obj 1078 89 state-calc, f 21;
#X obj 1531 126 env~ 1024;
#X obj 1531 150 dbtorms~;
#X obj 380 245 s MP;
#X obj 66 133 r s1;
#X obj 173 134 r s2;
#X obj 281 136 r s3;
#X msg 281 165 \$1 50;
#X msg 173 165 \$1 50;
#X msg 66 164 \$1 50;
#X obj 23 165 > 0;
#X obj 128 164 > 0;
#X obj 234 165 > 0;
#X obj 445 165 > 0;
#X obj 550 165 > 0;
#X obj 656 166 > 0;
#X obj 380 165 > 0;
#X obj 66 188 line;
#X obj 173 189 line;
#X obj 281 189 line;
#X obj 274 219 *;
#X obj 167 220 *;
#X obj 61 220 *;
#X obj 339 245 s mp;
#X obj 486 246 s h4;
#X obj 591 246 s h5;
#X obj 695 246 s h6;
#X obj 274 245 s h3;
#X obj 61 246 s h1;
#X obj 167 246 s h2;
#X msg 492 165 \$1 50;
#X obj 492 189 line;
#X obj 486 220 *;
#X msg 597 165 \$1 50;
#X obj 597 189 line;
#X obj 591 220 *;
#X obj 492 136 r s4;
#X obj 597 137 r s5;
#X obj 807 247 s~ acc-y;
#X obj 878 247 s~ acc-z;
#X obj 23 41 readtrill, f 106;
#X obj 1513 44 adc~ 1;
#X obj 82 1359 *~;
#X obj 283 1112 r h2;
#X obj 149 1164 t b;
#X obj 149 1112 loadbang;
#X obj 549 1114 r mp;
#X text 138 632 freq;
#X obj 61 651 soundwaves~;
#X obj 283 1257 + 0.15;
#X text 65 632 trigger;
#X obj 61 593 spigot;
#X obj 549 1164 < 0.3;
#X obj 216 1164 + 0.1;
#X obj 149 1257 -;
#X obj 216 1257 * 350;
#X obj 549 1236 vline~;
#X obj 550 1321 *~;
#X msg 549 1212 \$1 2000;
#X obj 549 1260 pow~ 2;
#X obj 167 1232 * 30;
#X obj 27 403 r~ audio;
#X obj 26 1059 *~;
#X obj 678 1039 pwmenv, f 13;
#X text 771 1020 freq;
#X obj 26 1939 throw~ output;
#X obj 100 529 r mp;
#X obj 102 1393 r~ acc-z;
#X obj 102 1470 +~ 200;
#X obj 100 553 < 0.3;
#X obj 1513 509 *~;
#X obj 1633 362 r mp;
#X obj 1532 475 vline~;
#X obj 1633 386 > 0;
#X obj 622 1301 vline~;
#X msg 622 1277 \$1 500;
#X obj 61 1756 delayer, f 14;
#X text 160 1736 feedback;
#X obj 157 1561 abs~;
#X obj 176 1612 r s1;
#X obj 157 1690 *~;
#X obj 176 1662 vline~;
#X obj 108 1662 r h1;
#X obj 108 1690 * 400;
#X obj 61 458 r~ intensity;
#X text 20 274 for each hole and the mouth piece \;;
#X text 1050 158 calculating availability of the holes based on;
#X text 1050 174 whether the higher holes are occupied or not, f 46;
#X text 1512 25 microphone input;
#X text 1541 509 gating the audio input;
#X obj 83 1257 del 1000;
#X text 109 1360 volume;
#X text 684 1019 duty cycle;
#X obj 438 1205 abs~;
#X obj 438 1181 r~ acc-y;
#X obj 452 1235 r~ acc-z;
#X obj 452 1259 abs~;
#X text 287 1302 speed;
#X text 220 1301 duration;
#X text 153 1301 1/freq;
#X msg 1532 350 1;
#X msg 1598 350 0;
#X obj 83 1321 granular, f 29;
#X obj 1532 380 *;
#X obj 216 1112 r h3;
#X obj 622 1237 r H3;
#X obj 61 488 threshold~ 0.5 20 0.5 20, f 13;
#X obj 807 76 sfapdlib/scalesiglin~ 0.329 0.495 -1 1, f 21;
#X obj 878 167 sfapdlib/scalesiglin~ 0.329 0.495 -1 1, f 21;
#X obj 102 1418 abs~;
#X obj 810 965 r~ acc-y;
#X obj 810 990 abs~;
#X obj 679 919 sig~;
#X obj 679 813 loadbang;
#X obj 679 895 -;
#X obj 726 860 t b f;
#X obj 810 1019 *~ 10;
#X obj 438 1339 *~;
#X obj 246 693 noiser;
#X obj 266 655 abs~;
#X obj 60 724 *~;
#X obj 78 688 r~ intensity;
#X obj 364 660 r~ intensity;
#X obj 347 782 *~;
#X obj 1209 548 +;
#X obj 1209 581 +;
#X obj 1209 605 + 1;
#X obj 1249 521 t b f;
#X obj 1294 551 t b f;
#X obj 1102 420 r~ intensity;
#X obj 1103 648 +~;
#X obj 1126 582 r~ acc-z;
#X obj 1126 606 *~ 500;
#X obj 1249 467 r h5;
#X obj 1209 629 * 300;
#X obj 1294 467 r h4;
#X obj 1209 467 r h6;
#X obj 1249 495 * 4;
#X obj 1294 495 * 2;
#X obj 1102 546 *~ 20;
#X obj 727 913 r H6;
#X obj 726 837 r h4;
#X obj 679 983 *~;
#X obj 727 963 vline~;
#X msg 727 939 \$1 300;
#X msg 149 1188 120;
#X obj 347 549 +~;
#X obj 347 573 osc~;
#X obj 426 506 osc~;
#X obj 426 529 *~;
#X obj 554 428 osc~;
#X obj 347 404 r~ carrier;
#X obj 347 604 *~;
#X obj 404 564 r~ intensity;
#X obj 426 404 r mod1;
#X obj 484 404 r index1;
#X obj 554 404 r mod2;
#X obj 607 404 r index2;
#X obj 904 654 s index2;
#X obj 828 654 s index1;
#X obj 765 654 s mod2;
#X obj 704 654 s mod1;
#X obj 704 603 + 10;
#X obj 704 579 * 100;
#X obj 766 578 * 80;
#X obj 765 602 + 3;
#X obj 828 602 + 15;
#X obj 828 578 * 440;
#X obj 904 603 + 10;
#X obj 904 579 * 400;
#X obj 904 530 * 0.2;
#X obj 766 530 * 0.2;
#X obj 828 404 r h5;
#X obj 704 404 r h4;
#X obj 1102 684 s~ carrier;
#X obj 554 453 *~;
#X obj 426 482 +~;
#X obj 93 1871 vline~;
#X obj 27 1903 switchsig~;
#X obj 471 645 r mp;
#X obj 366 738 *~;
#X msg 176 1638 \$1 100;
#X msg 93 1847 \$1 50, f 7;
#X obj 1512 755 rev1~;
#X obj 1528 705 loadbang;
#X obj 1513 872 *~;
#X obj 1513 916 dac~;
#X obj 175 1419 abs~;
#X obj 102 1446 *~ 500;
#X obj 175 1394 r~ acc-y;
#X obj 828 440 * 2;
#X obj 704 440 * 2;
#X obj 549 1188 + 0.75;
#X obj 741 165 change;
#X obj 741 139 > 0.3;
#X obj 741 189 sel 1;
#X obj 741 246 s btn;
#X obj 741 213 tgl 19 0 empty empty empty 0 -10 0 12 #fcfcfc #000000 #000000 0 1;
#X obj 1531 792 r btn;
#X msg 1531 816 \$1 100;
#X obj 1531 840 vline~;
#X obj 1513 670 *~ 1.5;
#X obj 808 41 adc~ 4;
#X obj 878 133 adc~ 5;
#X msg 1532 438 1 500;
#X msg 1593 438 0 1000;
#X obj 1532 414 sel 1;
#X obj 1593 414 sel 0;
#X obj 1532 292 threshold~ 0.025 20 0.025 20, f 13;
#X obj 365 687 clip~ 0 0.3;
#X obj 347 860 *~;
#X obj 382 824 abs~;
#X obj 381 800 r~ acc-y;
#X obj 471 718 vline~;
#X msg 471 694 \$1 100;
#X obj 471 669 < 0.3;
#X obj 93 1793 r h1;
#X obj 93 1823 > 0.85;
#X obj 265 631 r~ acc-y;
#X obj 157 1536 r~ acc-z;
#X msg 1528 729 30;
#X obj 82 1501 vcf~ 3;
#X obj 157 1585 clip~ 0 0.9;
#X obj 439 1291 -~ 0.65;
#X obj 347 628 *~ 1.2;
#X msg 679 837 1.2;
#X obj 347 433 *~ 0.65;
#X obj 247 603 r~ carrier;
#X obj 136 593 r~ carrier;
#X text 373 875 and a noise generator. The amplitute;
#X text 374 891 is controlled by acceleration in y axis;
#X text 25 382 audio input;
#X text 344 379 a complex freq-modulator;
#X text 677 791 based on the usage of the holes 4 and 6 as well as acc. in y axis, f 65;
#X text 373 860 combination of a freq-modualtor;
#X text 165 1755 delay effect with feedback and delay time;
#X text 677 775 a hard tremolo effect using pwm signals;
#X text 1512 606 main output;
#X text 1554 755 a basic reverb;
#X text 111 1736 time;
#X text 31 292 - (H# \, MP) boolean variable for whether pressed or not \, based on the built-in trill threshold, f 93;
#X text 31 309 - (h# \, mp) capacitance variable for coverage. for the holes \, valid only if the hole is available for mapping \, 0 if otherwise, f 124;
#X text 1549 232 rms of audio input;
#X obj 1513 89 *~ 22.5;
#X obj 1531 175 *~ 6.6667;
#X text 1099 383 calculating a global carrier frequency;
#X text 165 1769 mainly utilized by the usage of the lowest hole;
#X text 107 1902 delay on/off;
#X text 59 425 using energy input for;
#X text 59 439 creating soundwaves;
#X text 88 708 energy of audio input;
#X text 88 722 determines the volume;
#X text 1569 88 gain;
#X text 1629 294 thresholding for;
#X text 1629 309 on/off audio input;
#X text 1667 361 only if touching;
#X text 1667 376 the mouthpiece;
#X text 1581 474 smoothing the gate;
#X text 764 914 using hole 6 for smooth on/off;
#X text 763 837 using inverted hole 4 coverage for duty cycle;
#X text 472 1342 granular synthesis volume is controlled by many inputs;
#X text 106 1222 load;
#X text 106 1237 audio;
#X text 131 1502 freq filtering using tilt of the body;
#X text 1541 871 smooth on/off;
#X text 702 383 <- complex parameter mapping for the freq-modulator;
#X text 887 202 scaled to (-1 \, 1);
#X text 814 111 scaled to (-1 \, 1);
#X text 930 147 accelerometer;
#X text 930 133 z axis;
#X text 860 55 accelerometer;
#X text 860 41 y axis;
#X text 661 1238 Hole 3 smoothly switches on/off;
#X text 588 1114 Mouthpiece sensor contributes to volume;
#X text 588 1129 More volume if not being touched;
#X text 436 1130 Accelerometer;
#X text 436 1145 contributes to;
#X text 436 1159 volume;
#X text 147 1078 mapping hole coverage data;
#X text 147 1092 to granular synth parameters;
#X text 31 327 - (btn) simple on/off switch \, it toggles when touched, f 124;
#X text 21 20 listening to data from trill;
#X text 1207 428 higher holes used for calculating;
#X text 1206 443 the frequency with different weights;
#X text 1099 397 to be used for various sound processing modules;
#X text 245 583 generator;
#X text 245 570 noise;
#X connect 1 0 221 0;
#X connect 2 0 17 0;
#X connect 9 0 20 0;
#X connect 10 0 20 1;
#X connect 11 0 20 2;
#X connect 12 0 20 3;
#X connect 13 0 20 4;
#X connect 20 0 4 0;
#X connect 20 1 5 0;
#X connect 20 2 6 0;
#X connect 20 3 7 0;
#X connect 20 4 8 0;
#X connect 21 0 22 0;
#X connect 22 0 264 0;
#X connect 24 0 29 0;
#X connect 25 0 28 0;
#X connect 26 0 27 0;
#X connect 27 0 39 0;
#X connect 28 0 38 0;
#X connect 29 0 37 0;
#X connect 30 0 14 0;
#X connect 31 0 15 0;
#X connect 32 0 16 0;
#X connect 33 0 2 0;
#X connect 34 0 18 0;
#X connect 35 0 19 0;
#X connect 36 0 23 0;
#X connect 37 0 42 1;
#X connect 38 0 41 1;
#X connect 39 0 40 1;
#X connect 40 0 47 0;
#X connect 41 0 49 0;
#X connect 42 0 48 0;
#X connect 50 0 51 0;
#X connect 51 0 52 1;
#X connect 52 0 44 0;
#X connect 53 0 54 0;
#X connect 54 0 55 1;
#X connect 55 0 45 0;
#X connect 56 0 50 0;
#X connect 57 0 53 0;
#X connect 60 0 30 0;
#X connect 60 0 42 0;
#X connect 60 1 31 0;
#X connect 60 1 41 0;
#X connect 60 2 32 0;
#X connect 60 2 40 0;
#X connect 60 3 36 0;
#X connect 60 3 43 0;
#X connect 60 4 33 0;
#X connect 60 4 52 0;
#X connect 60 5 34 0;
#X connect 60 5 55 0;
#X connect 60 6 35 0;
#X connect 60 6 46 0;
#X connect 60 7 214 0;
#X connect 61 0 263 0;
#X connect 62 0 241 0;
#X connect 63 0 69 0;
#X connect 64 0 165 0;
#X connect 65 0 64 0;
#X connect 65 0 110 0;
#X connect 66 0 72 0;
#X connect 68 0 140 0;
#X connect 69 0 122 3;
#X connect 71 0 68 0;
#X connect 72 0 212 0;
#X connect 73 0 75 0;
#X connect 73 0 80 0;
#X connect 74 0 122 1;
#X connect 75 0 122 2;
#X connect 76 0 79 0;
#X connect 77 0 137 1;
#X connect 78 0 76 0;
#X connect 79 0 77 0;
#X connect 80 0 74 1;
#X connect 81 0 82 0;
#X connect 82 0 96 0;
#X connect 82 0 198 0;
#X connect 83 0 82 1;
#X connect 86 0 89 0;
#X connect 87 0 129 0;
#X connect 88 0 241 1;
#X connect 89 0 71 1;
#X connect 90 0 0 0;
#X connect 91 0 93 0;
#X connect 92 0 90 1;
#X connect 93 0 123 1;
#X connect 94 0 77 1;
#X connect 95 0 94 0;
#X connect 96 0 198 1;
#X connect 98 0 242 0;
#X connect 99 0 201 0;
#X connect 100 0 96 2;
#X connect 101 0 100 1;
#X connect 102 0 103 0;
#X connect 103 0 96 1;
#X connect 104 0 126 0;
#X connect 110 0 122 0;
#X connect 113 0 243 0;
#X connect 114 0 113 0;
#X connect 115 0 116 0;
#X connect 116 0 243 0;
#X connect 120 0 123 0;
#X connect 121 0 123 0;
#X connect 122 0 62 0;
#X connect 123 0 226 0;
#X connect 123 0 227 0;
#X connect 124 0 73 0;
#X connect 125 0 95 0;
#X connect 126 0 71 0;
#X connect 127 0 58 0;
#X connect 128 0 59 0;
#X connect 129 0 208 0;
#X connect 130 0 131 0;
#X connect 131 0 136 0;
#X connect 132 0 162 0;
#X connect 133 0 245 0;
#X connect 134 0 132 0;
#X connect 135 0 134 0;
#X connect 135 1 134 1;
#X connect 136 0 83 1;
#X connect 137 0 62 1;
#X connect 138 0 143 0;
#X connect 139 0 138 1;
#X connect 140 0 82 0;
#X connect 141 0 140 1;
#X connect 142 0 229 0;
#X connect 143 0 230 0;
#X connect 144 0 145 0;
#X connect 145 0 146 0;
#X connect 146 0 154 0;
#X connect 147 0 144 0;
#X connect 147 1 144 1;
#X connect 148 0 145 0;
#X connect 148 1 145 1;
#X connect 149 0 159 0;
#X connect 150 0 194 0;
#X connect 151 0 152 0;
#X connect 152 0 150 0;
#X connect 153 0 157 0;
#X connect 154 0 150 1;
#X connect 155 0 158 0;
#X connect 156 0 144 0;
#X connect 157 0 147 0;
#X connect 158 0 148 0;
#X connect 159 0 150 0;
#X connect 160 0 164 0;
#X connect 161 0 135 0;
#X connect 162 0 83 0;
#X connect 163 0 162 1;
#X connect 164 0 163 0;
#X connect 165 0 74 0;
#X connect 166 0 167 0;
#X connect 167 0 172 0;
#X connect 168 0 169 0;
#X connect 169 0 166 1;
#X connect 170 0 195 0;
#X connect 171 0 246 0;
#X connect 172 0 244 0;
#X connect 173 0 172 1;
#X connect 174 0 196 1;
#X connect 175 0 169 1;
#X connect 176 0 170 0;
#X connect 177 0 195 1;
#X connect 182 0 181 0;
#X connect 183 0 182 0;
#X connect 184 0 185 0;
#X connect 185 0 180 0;
#X connect 186 0 179 0;
#X connect 187 0 186 0;
#X connect 188 0 178 0;
#X connect 189 0 188 0;
#X connect 190 0 189 0;
#X connect 191 0 184 0;
#X connect 192 0 210 0;
#X connect 193 0 211 0;
#X connect 195 0 196 0;
#X connect 196 0 168 0;
#X connect 197 0 198 2;
#X connect 198 0 85 0;
#X connect 199 0 235 0;
#X connect 200 0 143 1;
#X connect 201 0 101 0;
#X connect 202 0 197 0;
#X connect 203 0 205 0;
#X connect 204 0 240 0;
#X connect 205 0 206 0;
#X connect 205 0 206 1;
#X connect 207 0 208 0;
#X connect 208 0 88 0;
#X connect 209 0 207 0;
#X connect 210 0 187 0;
#X connect 210 0 189 0;
#X connect 210 0 191 0;
#X connect 211 0 183 0;
#X connect 211 0 184 0;
#X connect 211 0 190 0;
#X connect 212 0 78 0;
#X connect 213 0 215 0;
#X connect 214 0 213 0;
#X connect 215 0 217 0;
#X connect 217 0 216 0;
#X connect 218 0 219 0;
#X connect 219 0 220 0;
#X connect 220 0 205 1;
#X connect 221 0 203 0;
#X connect 222 0 127 0;
#X connect 223 0 128 0;
#X connect 224 0 92 0;
#X connect 225 0 92 0;
#X connect 226 0 224 0;
#X connect 227 0 225 0;
#X connect 228 0 120 0;
#X connect 228 1 121 0;
#X connect 229 0 200 0;
#X connect 230 0 82 0;
#X connect 231 0 230 1;
#X connect 232 0 231 0;
#X connect 233 0 200 1;
#X connect 234 0 233 0;
#X connect 235 0 234 0;
#X connect 236 0 237 0;
#X connect 237 0 202 0;
#X connect 238 0 139 0;
#X connect 239 0 98 0;
#X connect 240 0 203 1;
#X connect 241 0 96 0;
#X connect 241 0 198 0;
#X connect 242 0 100 0;
#X connect 243 0 137 0;
#X connect 244 0 143 0;
#X connect 245 0 134 0;
#X connect 246 0 166 0;
#X connect 247 0 138 0;
#X connect 248 0 68 1;
#X connect 263 0 90 0;
#X connect 263 0 21 0;
#X connect 264 0 3 0;
#X connect 264 0 228 0;
