#N canvas 450 100 393 421 12;
#X obj 68 268 *~;
#X obj 67 299 s~ feedback-sig;
#X obj 68 144 r~ feedback-sig;
#X obj 29 267 +~;
#X obj 29 78 inlet~ audio, f 6;
#X obj 167 78 inlet~ feedback, f 8;
#X obj 29 350 outlet~;
#X obj 69 177 delwrite~ delaudio 500;
#X obj 85 78 inlet~ delaytime, f 10;
#X obj 68 227 delread4~ delaudio 0;
#X text 27 17 audio delay effect with control of;
#X text 30 33 delay time and feedback;
#X connect 0 0 1 0;
#X connect 2 0 7 0;
#X connect 3 0 6 0;
#X connect 4 0 7 0;
#X connect 4 0 3 0;
#X connect 5 0 0 1;
#X connect 8 0 9 0;
#X connect 9 0 0 0;
#X connect 9 0 3 1;
