#N canvas 130 130 500 477 12;
#X obj 18 231 vline~;
#X msg 18 202 \$1 \, \$2 \$3;
#X obj 18 173 pack f f f;
#X floatatom 18 57 5 0 0 0 - - - 0;
#X obj 18 80 t f f;
#X obj 50 134 +;
#X floatatom 85 55 5 0 0 0 - - - 0;
#X obj 68 98 * 44.1;
#X floatatom 151 57 5 0 0 0 - - - 0;
#X obj 151 80 t b f;
#X obj 85 134 / 1;
#X obj 85 17 r g-dur;
#X obj 151 18 r g-speed;
#X obj 19 331 outlet~;
#X obj 18 17 inlet;
#X obj 157 250 vline~;
#X obj 157 202 f;
#X obj 157 171 t b;
#X obj 19 294 *~;
#X msg 157 226 1 20 \, 0 20 \$1;
#X obj 187 171 - 20;
#X obj 157 274 pow~ 1;
#X obj 18 263 tabread4~ sample;
#X connect 0 0 22 0;
#X connect 1 0 0 0;
#X connect 1 0 17 0;
#X connect 2 0 1 0;
#X connect 3 0 4 0;
#X connect 4 0 2 0;
#X connect 4 1 5 0;
#X connect 5 0 2 1;
#X connect 6 0 10 0;
#X connect 6 0 7 0;
#X connect 7 0 5 1;
#X connect 8 0 9 0;
#X connect 9 0 10 0;
#X connect 9 1 10 1;
#X connect 10 0 2 2;
#X connect 10 0 20 0;
#X connect 11 0 6 0;
#X connect 12 0 8 0;
#X connect 14 0 3 0;
#X connect 15 0 21 0;
#X connect 16 0 19 0;
#X connect 17 0 16 0;
#X connect 18 0 13 0;
#X connect 19 0 15 0;
#X connect 20 0 16 1;
#X connect 21 0 18 1;
#X connect 22 0 18 0;
