#N canvas 479 126 1276 770 12;
#N canvas 0 50 450 250 (subpatch) 0;
#X array sample 288768 float 2;
#X coords 0 1 288768 -1 468 56 1 0 0;
#X restore 30 72 graph;
#X obj 189 334 random;
#X msg 189 359 next \$1;
#X obj 30 245 soundfiler;
#X floatatom 30 269 10 0 0 0 - - - 0;
#X msg 351 224 80;
#X obj 189 278 metro 30, f 10;
#X msg 432 223 1;
#X obj 189 430 outlet~;
#X obj 189 246 loadbang;
#X obj 432 198 loadbang;
#X obj 351 199 loadbang;
#X obj 338 255 s g-dur;
#X obj 418 256 s g-speed;
#X obj 256 147 inlet frequency, f 9;
#X obj 338 147 inlet duration, f 8;
#X obj 418 147 inlet speed, f 5;
#X obj 189 385 clone grain 4;
#X obj 30 147 inlet load, f 6;
#X text 27 24 granular synthesis with 5-sec recording of steel hang;
#X msg 30 193 read steelhang.wav sample, f 13;
#X connect 1 0 2 0;
#X connect 2 0 17 0;
#X connect 3 0 4 0;
#X connect 4 0 1 1;
#X connect 5 0 12 0;
#X connect 6 0 1 0;
#X connect 7 0 13 0;
#X connect 9 0 6 0;
#X connect 10 0 7 0;
#X connect 11 0 5 0;
#X connect 14 0 6 1;
#X connect 15 0 12 0;
#X connect 16 0 13 0;
#X connect 17 0 8 0;
#X connect 18 0 20 0;
#X connect 20 0 3 0;
