#N canvas 234 322 1080 557 12;
#X obj 73 332 *~;
#X obj 103 263 vline~;
#X obj 278 336 *~;
#X obj 321 262 vline~;
#X msg 103 238 1 350 \, 0 350 350;
#X obj 103 287 pow~ 1.5;
#X obj 321 286 pow~ 1.5;
#X obj 2 171 inlet;
#X obj 46 483 outlet~;
#X msg 322 236 1 400 \, 0 400 350;
#X obj 73 151 osc~;
#X obj 279 152 osc~;
#X obj 73 124 *~ 2;
#X obj 279 126 *~ 4;
#X obj 35 17 inlet~;
#X obj 277 363 *~ 0.05;
#X obj 73 356 *~ 0.15;
#X connect 0 0 16 0;
#X connect 1 0 5 0;
#X connect 2 0 15 0;
#X connect 3 0 6 0;
#X connect 4 0 1 0;
#X connect 5 0 0 1;
#X connect 6 0 2 1;
#X connect 7 0 9 0;
#X connect 7 0 4 0;
#X connect 9 0 3 0;
#X connect 10 0 0 0;
#X connect 11 0 2 0;
#X connect 12 0 10 0;
#X connect 13 0 11 0;
#X connect 14 0 12 0;
#X connect 14 0 13 0;
#X connect 15 0 8 0;
#X connect 16 0 8 0;
