#N canvas 437 197 670 533 12;
#X obj 47 327 *~;
#X obj 90 259 vline~;
#X obj 2 171 inlet;
#X obj 46 483 outlet~;
#X obj 47 151 phasor~;
#X obj 90 283 pow~ 2;
#X msg 91 234 1 300 \, 0 450 450;
#X obj 228 328 *~;
#X obj 271 260 vline~;
#X obj 271 284 pow~ 2;
#X obj 227 151 osc~;
#X msg 272 235 1 300 \, 0 450 450;
#X obj 112 37 inlet~;
#X obj 47 122 *~ 0.75;
#X obj 226 122 *~ 0.5;
#X obj 47 351 *~ 0.03;
#X obj 228 351 *~ 0.125;
#X connect 0 0 15 0;
#X connect 1 0 5 0;
#X connect 2 0 6 0;
#X connect 2 0 11 0;
#X connect 4 0 0 0;
#X connect 5 0 0 1;
#X connect 6 0 1 0;
#X connect 7 0 16 0;
#X connect 8 0 9 0;
#X connect 9 0 7 1;
#X connect 10 0 7 0;
#X connect 11 0 8 0;
#X connect 12 0 14 0;
#X connect 12 0 13 0;
#X connect 13 0 4 0;
#X connect 14 0 10 0;
#X connect 15 0 3 0;
#X connect 16 0 3 0;
