#N canvas 896 173 665 519 12;
#X obj 35 54 cyclone/pink~;
#X obj 269 400 osc~;
#X obj 139 240 osc~;
#X obj 139 147 osc~;
#X obj 158 355 osc~;
#X obj 139 432 *~;
#X msg 294 376 1;
#X msg 183 330 0.6;
#X obj 140 54 inlet~;
#X obj 139 216 +~ 50;
#X obj 183 300 loadbang;
#X obj 270 54 inlet~;
#X obj 139 193 *~;
#X obj 35 503 outlet~;
#X obj 158 379 *~ 0.3;
#X obj 178 147 -~;
#X obj 178 173 +~ 120;
#X obj 177 92 *~ -0.1;
#X obj 36 158 vcf~ 3;
#X obj 158 403 +~ 0.5;
#X obj 139 265 *~ 0.45;
#X obj 35 468 *~;
#X obj 269 424 *~ 0.2;
#X obj 269 448 +~ 0.6;
#X text 34 12 A complex noise generator based on pink noise \, manipulated;
#X text 36 28 by an oscilator;
#X connect 0 0 18 0;
#X connect 1 0 22 0;
#X connect 2 0 20 0;
#X connect 3 0 12 0;
#X connect 4 0 14 0;
#X connect 5 0 21 0;
#X connect 6 0 1 1;
#X connect 7 0 4 1;
#X connect 8 0 3 0;
#X connect 8 0 18 1;
#X connect 8 0 17 0;
#X connect 9 0 2 0;
#X connect 10 0 7 0;
#X connect 10 0 6 0;
#X connect 11 0 1 0;
#X connect 11 0 15 1;
#X connect 12 0 9 0;
#X connect 14 0 19 0;
#X connect 15 0 16 0;
#X connect 16 0 12 1;
#X connect 17 0 15 0;
#X connect 18 0 21 0;
#X connect 19 0 5 1;
#X connect 20 0 5 0;
#X connect 21 0 13 0;
#X connect 22 0 23 0;
#X connect 23 0 21 1;
