#N canvas 682 303 450 300 12;
#X obj 20 220 lop~ 100;
#X obj 20 262 outlet~;
#X obj 20 129 *~ 0.75;
#X obj 20 196 +~;
#X obj 20 105 pwmsig~;
#X obj 20 18 inlet~;
#X obj 87 104 *~ -0.2;
#X obj 87 128 +~ 0.6;
#X obj 132 20 inlet~;
#X connect 0 0 1 0;
#X connect 2 0 3 0;
#X connect 3 0 0 0;
#X connect 4 0 2 0;
#X connect 5 0 6 0;
#X connect 5 0 4 0;
#X connect 6 0 7 0;
#X connect 7 0 3 1;
#X connect 8 0 4 1;
