#N canvas 861 374 917 430 12;
#X obj 29 262 lop~ 12000;
#X obj 28 323 outlet~;
#X obj 190 106 phasor~;
#X obj 28 167 expr~ $v1 < $v2;
#X obj 131 19 inlet~;
#X obj 190 20 inlet~;
#X connect 0 0 1 0;
#X connect 2 0 3 0;
#X connect 3 0 0 0;
#X connect 4 0 3 1;
#X connect 5 0 2 0;
