#N canvas 259 172 1195 667 12;
#X obj 16 212 r bela_trill;
#X obj 16 258 route mycraft;
#X obj 16 362 clip 0 1;
#X obj 131 362 clip 0 1;
#X obj 246 362 clip 0 1;
#X obj 476 362 clip 0 1;
#X obj 591 362 clip 0 1;
#X obj 706 361 clip 0 1;
#X obj 16 425 outlet h1;
#X obj 706 425 outlet h6;
#X obj 591 425 outlet h5;
#X obj 476 425 outlet h4;
#X obj 246 425 outlet h3;
#X obj 131 425 outlet h2;
#X obj 16 15 loadbang;
#X obj 25 100 s bela_setTrill;
#X msg 16 58 new mycraft 1 CRAFT \, prescaler mycraft 4 \, threshold mycraft 0.01, f 41;
#X obj 17 141 r bela_trillCreated;
#X obj 26 169 print bela_trillCreated;
#X text 139 100 initialize trill;
#X text 117 258 get sensor data;
#X obj 476 338 * 18.772;
#X obj 706 336 * 23.0182;
#X obj 379 493 expr $f1 + $f2 + $f3 + $f4 + $f5 + $f6;
#X obj 361 553 /;
#X obj 361 577 outlet mp;
#X obj 361 338 maxlib/scale 0.328 0.428 0 1, f 12;
#X obj 379 518 expr if ($f1 < 0.001 \, 1 \, $f1 * 0.75), f 38;
#X obj 16 338 * 14.6009;
#X obj 131 338 * 30.2621;
#X obj 246 338 * 20.9619;
#X obj 591 338 * 29.421;
#X obj 16 284 unpack f f f f f f f f f f f f f f f f f f f, f 83;
#X obj 839 425 outlet button;
#X obj 839 335 * 10;
#X text 659 490 the conductivity in moutpiece sensor is getting affected by;
#X text 659 506 other capacitive sensors \, typically because of their proximity, f 62;
#X text 659 522 I compansate this by an arithmetic operation., f 62;
#X text 14 627 outlets hole and mouthpiece sensors;
#X connect 0 0 1 0;
#X connect 1 0 32 0;
#X connect 2 0 8 0;
#X connect 2 0 23 0;
#X connect 3 0 13 0;
#X connect 3 0 23 1;
#X connect 4 0 12 0;
#X connect 4 0 23 2;
#X connect 5 0 11 0;
#X connect 5 0 23 4;
#X connect 6 0 10 0;
#X connect 6 0 23 5;
#X connect 7 0 9 0;
#X connect 14 0 16 0;
#X connect 16 0 15 0;
#X connect 17 0 18 0;
#X connect 21 0 5 0;
#X connect 22 0 7 0;
#X connect 23 0 27 0;
#X connect 24 0 25 0;
#X connect 26 0 23 3;
#X connect 26 0 24 0;
#X connect 27 0 24 1;
#X connect 28 0 2 0;
#X connect 29 0 3 0;
#X connect 30 0 4 0;
#X connect 31 0 6 0;
#X connect 32 11 28 0;
#X connect 32 12 29 0;
#X connect 32 13 30 0;
#X connect 32 14 26 0;
#X connect 32 15 22 0;
#X connect 32 16 31 0;
#X connect 32 17 21 0;
#X connect 32 18 34 0;
#X connect 34 0 33 0;
