#N canvas 178 85 430 559 12;
#X obj 17 39 inlet;
#X obj 68 39 inlet~;
#X obj 17 122 highsynth~;
#X text 15 12 combines various sine waves;
#X obj 17 216 *~ 0.5;
#X obj 17 240 outlet~;
#X obj 96 122 lowsynth~;
#X connect 0 0 2 0;
#X connect 0 0 6 0;
#X connect 1 0 2 1;
#X connect 1 0 6 1;
#X connect 2 0 4 0;
#X connect 4 0 5 0;
#X connect 6 0 4 0;
