#N canvas 296 372 373 382 12;
#X obj 15 51 inlet;
#X obj 65 51 inlet;
#X obj 115 51 inlet;
#X obj 165 51 inlet;
#X obj 215 51 inlet;
#X obj 115 153 *;
#X obj 165 103 *;
#X obj 215 76 t b f;
#X obj 165 126 t b f;
#X obj 115 176 t b f;
#X obj 65 203 *;
#X obj 65 226 t b f;
#X obj 15 254 *;
#X obj 15 296 == 0;
#X obj 15 322 outlet;
#X obj 65 296 == 0;
#X obj 65 322 outlet;
#X obj 115 296 == 0;
#X obj 115 322 outlet;
#X obj 165 296 == 0;
#X obj 165 322 outlet;
#X obj 215 296 == 0;
#X obj 215 322 outlet;
#X text 15 8 calculating availability of the holes based on;
#X text 15 24 whether the higher holes are occupied or not, f 46;
#X connect 0 0 12 0;
#X connect 1 0 10 0;
#X connect 2 0 5 0;
#X connect 3 0 6 0;
#X connect 4 0 7 0;
#X connect 5 0 9 0;
#X connect 6 0 8 0;
#X connect 7 0 6 0;
#X connect 7 1 6 1;
#X connect 7 1 21 0;
#X connect 8 0 5 0;
#X connect 8 1 5 1;
#X connect 8 1 19 0;
#X connect 9 0 10 0;
#X connect 9 1 10 1;
#X connect 9 1 17 0;
#X connect 10 0 11 0;
#X connect 11 0 12 0;
#X connect 11 1 12 1;
#X connect 11 1 15 0;
#X connect 12 0 13 0;
#X connect 13 0 14 0;
#X connect 15 0 16 0;
#X connect 17 0 18 0;
#X connect 19 0 20 0;
#X connect 21 0 22 0;
