#N canvas 259 172 1479 668 12;
#X obj 883 594 netsend -u;
#X obj 883 67 loadbang;
#X msg 883 152 connect 192.168.6.1 8001;
#X obj 1004 313 dac~ 27 28;
#X obj 929 421 snapshot~;
#X obj 1111 420 snapshot~;
#X obj 1282 349 loadbang;
#X msg 929 445 send acc-y \$1;
#X msg 1111 446 send acc-z \$1;
#X obj 1282 373 metro 50;
#X obj 1111 348 sfapdlib/scalesiglin~ 0.3351 0.4991 -1 1, f 21;
#X obj 928 347 sfapdlib/scalesiglin~ 0.367 0.451 -1 1, f 21;
#X obj 92 61 readtrill;
#X msg 28 174 send h1 \$1;
#X msg 143 174 send h2 \$1;
#X msg 258 174 send h3 \$1;
#X msg 373 174 send mp \$1;
#X msg 488 174 send h4 \$1;
#X msg 603 174 send h5 \$1;
#X msg 718 173 send h6 \$1;
#X obj 929 247 adc~ 4;
#X obj 1111 248 adc~ 5;
#X connect 1 0 2 0;
#X connect 2 0 0 0;
#X connect 4 0 7 0;
#X connect 5 0 8 0;
#X connect 6 0 9 0;
#X connect 7 0 0 0;
#X connect 8 0 0 0;
#X connect 9 0 5 0;
#X connect 9 0 4 0;
#X connect 10 0 5 0;
#X connect 11 0 4 0;
#X connect 12 0 13 0;
#X connect 12 1 14 0;
#X connect 12 2 15 0;
#X connect 12 3 16 0;
#X connect 12 4 17 0;
#X connect 12 5 18 0;
#X connect 12 6 19 0;
#X connect 13 0 0 0;
#X connect 14 0 0 0;
#X connect 15 0 0 0;
#X connect 16 0 0 0;
#X connect 17 0 0 0;
#X connect 18 0 0 0;
#X connect 19 0 0 0;
#X connect 20 0 3 0;
#X connect 20 0 11 0;
#X connect 21 0 3 1;
#X connect 21 0 10 0;
