#N canvas 259 172 799 667 12;
#X obj 16 212 r bela_trill;
#X obj 16 258 route mycraft;
#X obj 16 362 clip 0 1;
#X obj 131 362 clip 0 1;
#X obj 246 362 clip 0 1;
#X obj 476 362 clip 0 1;
#X obj 591 362 clip 0 1;
#X obj 706 361 clip 0 1;
#X obj 16 425 outlet h1;
#X obj 706 425 outlet h6;
#X obj 591 425 outlet h5;
#X obj 476 425 outlet h4;
#X obj 246 425 outlet h3;
#X obj 131 425 outlet h2;
#X obj 16 15 loadbang;
#X obj 25 100 s bela_setTrill;
#X msg 16 58 new mycraft 1 CRAFT \, prescaler mycraft 4 \, threshold mycraft 0.01, f 41;
#X obj 17 141 r bela_trillCreated;
#X obj 26 169 print bela_trillCreated;
#X text 139 100 initialize trill;
#X text 117 258 get sensor data;
#X obj 476 338 * 18.772;
#X obj 16 284 unpack f f f f f f f f f f f f f f f f f f, f 72;
#X obj 706 336 * 23.0182;
#X obj 336 551 expr $f1 + $f2 + $f3 + $f4 + $f5 + $f6;
#X obj 361 426 /;
#X obj 361 450 outlet mp;
#X obj 361 338 maxlib/scale 0.328 0.428 0 1, f 12;
#X obj 344 582 expr if ($f1 < 0.001 \, 1 \, $f1 * 0.75);
#X obj 16 338 * 14.6009;
#X obj 131 338 * 30.2621;
#X obj 246 338 * 20.9619;
#X obj 591 338 * 29.421;
#X connect 0 0 1 0;
#X connect 1 0 22 0;
#X connect 2 0 8 0;
#X connect 2 0 24 0;
#X connect 3 0 13 0;
#X connect 3 0 24 1;
#X connect 4 0 12 0;
#X connect 4 0 24 2;
#X connect 5 0 11 0;
#X connect 5 0 24 4;
#X connect 6 0 10 0;
#X connect 6 0 24 5;
#X connect 7 0 9 0;
#X connect 14 0 16 0;
#X connect 16 0 15 0;
#X connect 17 0 18 0;
#X connect 21 0 5 0;
#X connect 22 11 29 0;
#X connect 22 12 30 0;
#X connect 22 13 31 0;
#X connect 22 14 27 0;
#X connect 22 15 23 0;
#X connect 22 16 32 0;
#X connect 22 17 21 0;
#X connect 23 0 7 0;
#X connect 24 0 28 0;
#X connect 25 0 26 0;
#X connect 27 0 24 3;
#X connect 27 0 25 0;
#X connect 28 0 25 1;
#X connect 29 0 2 0;
#X connect 30 0 3 0;
#X connect 31 0 4 0;
#X connect 32 0 6 0;
